<?xml version="1.0" standalone="no"?>
<!DOCTYPE svg PUBLIC "-//W3C//DTD SVG 20010904//EN"
 "http://www.w3.org/TR/2001/REC-SVG-20010904/DTD/svg10.dtd">
<svg version="1.0" xmlns="http://www.w3.org/2000/svg"
 width="353.000000pt" height="353.000000pt" viewBox="0 0 353.000000 353.000000"
 preserveAspectRatio="xMidYMid meet">
<metadata>
Created by potrace 1.14, written by Peter Selinger 2001-2017
</metadata>
<g transform="translate(0.000000,353.000000) scale(0.100000,-0.100000)"
fill="#000000" stroke="none">
<path d="M480 1890 l0 -280 56 0 57 0 -6 238 -6 237 62 -237 62 -238 51 0 52
0 21 68 c12 37 40 132 62 212 22 80 44 154 49 165 5 12 9 -73 9 -212 l1 -233
55 0 55 0 0 280 0 280 -85 0 c-100 0 -82 24 -150 -206 -64 -218 -59 -210 -79
-128 -9 38 -33 129 -53 202 l-36 132 -89 0 -88 0 0 -280z"/>
<path d="M1190 1891 l0 -281 55 0 55 0 0 110 0 110 74 0 c69 0 76 -2 95 -26
16 -20 21 -41 21 -88 0 -102 3 -106 69 -106 l56 0 -7 105 c-6 84 -11 112 -28
135 -12 17 -26 30 -31 30 -6 0 3 12 20 26 56 47 65 141 20 198 -41 52 -71 60
-241 64 l-158 4 0 -281z m289 153 c27 -35 26 -59 -4 -89 -21 -22 -33 -25 -100
-25 l-75 0 0 70 0 70 79 0 c74 0 81 -2 100 -26z"/>
<path d="M1865 2158 c-12 -34 -185 -543 -185 -545 0 -2 27 -3 59 -3 l59 0 22
65 22 65 101 0 102 0 23 -65 24 -65 64 0 64 0 -11 28 c-6 15 -48 133 -94 262
-46 129 -86 243 -90 253 -6 14 -20 17 -81 17 -51 0 -76 -4 -79 -12z m116 -203
l37 -115 -74 0 c-41 0 -74 3 -74 6 0 4 14 49 30 101 17 51 30 100 30 108 0 40
18 4 51 -100z"/>
<path d="M2300 1890 l0 -280 60 0 60 0 -2 278 -3 277 -57 3 -58 3 0 -281z"/>
<path d="M2550 1890 l0 -280 189 0 c187 0 189 0 195 23 3 12 6 34 6 50 l0 27
-135 0 -135 0 -2 228 -3 227 -57 3 -58 3 0 -281z"/>
<path d="M1535 1465 c0 -40 4 -55 14 -55 8 0 11 6 7 15 -6 18 2 45 15 45 5 0
9 -13 9 -30 0 -16 5 -30 11 -30 6 0 9 14 7 33 -2 26 -7 32 -26 31 -20 -1 -22
3 -17 23 3 15 1 23 -7 23 -9 0 -13 -17 -13 -55z"/>
<path d="M360 1460 l0 -50 35 0 c19 0 35 4 35 9 0 4 -11 6 -25 3 -21 -3 -25 0
-25 18 0 17 4 21 20 17 12 -3 20 0 20 8 0 8 -8 11 -20 8 -14 -4 -20 0 -20 12
0 13 6 16 25 13 14 -3 25 -1 25 3 0 5 -16 9 -35 9 l-35 0 0 -50z"/>
<path d="M605 1500 c-3 -5 -1 -10 4 -10 6 0 11 5 11 10 0 6 -2 10 -4 10 -3 0
-8 -4 -11 -10z"/>
<path d="M1168 1503 c22 -4 24 -9 20 -49 -2 -34 0 -44 12 -44 12 0 14 10 12
44 -4 40 -2 45 20 49 12 2 -2 4 -32 4 -30 0 -44 -2 -32 -4z"/>
<path d="M1785 1460 c0 -33 4 -50 12 -50 7 0 10 6 8 13 -7 17 6 34 30 40 15 4
14 5 -7 6 -34 1 -33 24 2 32 22 6 20 7 -10 8 l-35 1 0 -50z"/>
<path d="M2078 1499 c-3 -9 -2 -22 3 -30 6 -10 2 -16 -14 -21 -20 -5 -19 -6 6
-7 17 -1 27 -7 27 -16 0 -8 6 -15 14 -15 12 0 11 7 -4 38 -9 20 -19 44 -22 51
-4 13 -5 13 -10 0z"/>
<path d="M2179 1461 l-4 -51 31 0 c33 0 51 21 37 43 -5 7 -8 21 -8 32 0 14 -8
21 -26 23 -26 3 -27 1 -30 -47z m41 24 c0 -8 -4 -15 -10 -15 -5 0 -10 7 -10
15 0 8 5 15 10 15 6 0 10 -7 10 -15z m5 -45 c0 -7 -6 -15 -12 -17 -8 -3 -13 4
-13 17 0 13 5 20 13 18 6 -3 12 -11 12 -18z"/>
<path d="M2610 1460 c0 -36 4 -50 14 -50 9 0 12 8 9 24 -4 19 0 25 18 29 24 4
24 4 2 6 -33 2 -29 29 5 34 22 3 20 4 -10 6 l-38 1 0 -50z"/>
<path d="M1478 1490 c-8 -24 4 -80 18 -80 7 0 16 4 19 10 3 6 -1 7 -9 4 -12
-5 -16 0 -16 20 0 18 6 26 18 27 13 0 14 2 2 6 -8 3 -18 10 -21 16 -4 5 -8 4
-11 -3z"/>
<path d="M2333 1489 c-17 -17 0 -73 22 -77 12 -2 16 0 9 5 -17 13 -24 52 -9
55 11 2 11 5 0 15 -8 7 -16 8 -22 2z"/>
<path d="M2778 1495 c-4 -8 -4 -32 1 -77 1 -11 29 -10 36 2 3 6 -1 7 -9 4 -12
-5 -16 0 -16 20 0 38 37 37 42 -1 2 -23 8 -28 33 -30 29 -1 31 1 27 33 -3 22
-10 34 -19 34 -13 0 -13 -3 -3 -16 11 -12 10 -18 -3 -32 -16 -15 -17 -14 -17
16 0 29 -3 32 -29 32 -16 0 -31 5 -33 12 -3 7 -7 8 -10 3z"/>
<path d="M2388 1484 c-2 -2 -2 -19 0 -39 3 -25 9 -35 21 -34 10 0 11 2 4 6
-20 7 -16 51 5 55 14 3 13 5 -5 10 -12 3 -23 4 -25 2z"/>
<path d="M445 1444 c0 -19 5 -34 10 -34 6 0 11 12 10 27 0 14 6 28 13 30 8 3
12 -6 12 -26 0 -17 4 -31 8 -31 6 0 7 23 3 62 -1 4 -13 6 -28 6 -25 -1 -28 -5
-28 -34z"/>
<path d="M529 1478 c-1 -2 -2 -27 -4 -56 l-2 -53 31 3 c40 4 44 39 6 48 -24 6
-24 6 -4 12 12 3 23 15 27 27 4 18 1 21 -24 21 -16 0 -30 -1 -30 -2z m31 -23
c0 -8 -4 -15 -10 -15 -5 0 -10 7 -10 15 0 8 5 15 10 15 6 0 10 -7 10 -15z m20
-65 c0 -5 -11 -10 -25 -10 -14 0 -25 5 -25 10 0 6 11 10 25 10 14 0 25 -4 25
-10z"/>
<path d="M604 1445 c1 -19 6 -35 11 -35 7 0 9 15 7 35 -5 45 -19 45 -18 0z"/>
<path d="M645 1445 c0 -19 5 -35 11 -35 14 0 11 63 -2 67 -5 2 -9 -13 -9 -32z"/>
<path d="M688 1445 c2 -19 8 -35 14 -35 13 0 6 63 -8 67 -6 2 -8 -10 -6 -32z"/>
<path d="M730 1459 c-13 -24 2 -49 29 -49 13 1 13 2 -3 11 -15 9 -16 13 -5 20
22 14 36 10 42 -11 3 -13 13 -20 29 -19 17 1 18 3 6 6 -20 5 -26 53 -7 53 6 0
9 -6 6 -14 -4 -10 0 -12 15 -8 18 4 18 6 4 20 -12 13 -20 13 -40 4 -16 -7 -28
-8 -31 -2 -10 17 -34 11 -45 -11z m30 1 c0 -5 -4 -10 -10 -10 -5 0 -10 5 -10
10 0 6 5 10 10 10 6 0 10 -4 10 -10z"/>
<path d="M865 1445 c0 -19 5 -35 10 -35 6 0 11 12 10 28 0 16 5 26 13 25 6 -2
12 2 12 7 0 6 -10 10 -22 10 -20 0 -23 -5 -23 -35z"/>
<path d="M925 1445 c0 -46 20 -46 21 0 0 19 -4 35 -10 35 -6 0 -11 -16 -11
-35z"/>
<path d="M970 1445 c0 -19 5 -35 10 -35 6 0 10 16 10 35 0 19 -4 35 -10 35 -5
0 -10 -16 -10 -35z"/>
<path d="M1008 1445 c2 -19 10 -35 17 -35 9 0 11 9 6 32 -9 44 -28 47 -23 3z"/>
<path d="M1048 1473 c-2 -5 -3 -28 -3 -53 0 -43 2 -45 30 -45 39 0 43 36 5 45
-24 6 -24 6 -4 12 12 3 23 15 27 27 4 18 1 21 -23 21 -16 0 -30 -3 -32 -7z
m42 -18 c0 -8 -7 -15 -15 -15 -8 0 -15 7 -15 15 0 8 7 15 15 15 8 0 15 -7 15
-15z m10 -65 c0 -5 -12 -10 -26 -10 -14 0 -23 4 -19 10 3 6 15 10 26 10 10 0
19 -4 19 -10z"/>
<path d="M1262 1468 c-26 -26 1 -65 38 -53 16 5 20 14 18 33 -3 30 -35 41 -56
20z m42 -14 c8 -20 -1 -34 -20 -34 -8 0 -14 10 -14 25 0 28 24 34 34 9z"/>
<path d="M1333 1464 c-3 -8 -1 -20 5 -26 16 -16 44 -5 53 20 7 20 5 22 -22 22
-18 0 -32 -6 -36 -16z m37 -10 c0 -17 -22 -14 -28 4 -2 7 3 12 12 12 9 0 16
-7 16 -16z"/>
<path d="M1410 1459 c-13 -24 2 -49 29 -49 14 1 14 2 -1 11 -20 11 -25 49 -7
49 6 0 9 -6 6 -14 -4 -10 0 -12 14 -9 15 4 17 8 8 19 -16 20 -37 17 -49 -7z"/>
<path d="M1620 1459 c-13 -23 2 -49 28 -49 13 0 12 3 -4 14 -18 14 -18 15 9
21 22 6 25 10 16 21 -16 20 -37 17 -49 -7z m30 1 c0 -5 -4 -10 -10 -10 -5 0
-10 5 -10 10 0 6 5 10 10 10 6 0 10 -4 10 -10z"/>
<path d="M1688 1445 c3 -24 9 -35 21 -35 9 0 12 3 6 8 -6 4 -10 13 -9 20 1 6
2 17 3 23 0 5 5 8 10 4 5 -3 12 -1 16 5 4 6 -6 10 -22 10 -27 0 -29 -2 -25
-35z"/>
<path d="M1867 1462 c-11 -29 8 -54 37 -50 29 4 30 61 2 66 -19 4 -19 3 -2
-13 19 -20 17 -39 -7 -43 -11 -2 -17 6 -19 30 -3 30 -4 31 -11 10z"/>
<path d="M1945 1445 c0 -19 5 -35 11 -35 6 0 9 13 6 32 -4 26 -2 30 12 25 9
-4 16 -2 16 3 0 6 -10 10 -22 10 -20 0 -23 -5 -23 -35z"/>
<path d="M2264 1466 c-11 -28 1 -51 26 -53 24 -3 24 -2 3 6 -21 10 -27 35 -8
38 6 0 9 -3 8 -8 -2 -4 4 -6 12 -2 12 4 13 9 4 19 -15 18 -38 18 -45 0z"/>
<path d="M2444 1466 c-14 -37 22 -74 47 -49 6 6 1 9 -13 9 -15 -1 -23 5 -23
17 0 9 5 17 10 16 6 -1 9 -5 8 -10 -2 -4 4 -6 12 -2 12 4 13 9 4 19 -15 18
-38 18 -45 0z"/>
<path d="M2510 1445 c0 -22 5 -35 13 -35 9 0 12 10 9 32 -4 26 -2 30 12 25 9
-4 16 -2 16 3 0 6 -11 10 -25 10 -22 0 -25 -4 -25 -35z"/>
<path d="M2694 1453 c2 -16 4 -31 5 -35 0 -4 14 -6 29 -6 25 1 27 4 24 34 -3
23 -9 34 -21 34 -13 0 -13 -2 -3 -9 16 -10 12 -43 -5 -49 -9 -2 -13 7 -13 27
0 17 -4 31 -9 31 -6 0 -8 -12 -7 -27z"/>
<path d="M2912 1445 c0 -21 5 -35 12 -35 8 0 11 11 8 32 -4 26 -2 30 12 25 9
-4 16 -2 16 3 0 6 -11 10 -24 10 -21 0 -24 -5 -24 -35z"/>
<path d="M2974 1466 c-11 -28 1 -51 26 -53 l25 -3 -25 11 -25 11 28 10 c30 11
35 23 11 32 -24 9 -34 7 -40 -8z m31 -6 c3 -5 -1 -10 -10 -10 -9 0 -13 5 -10
10 3 6 8 10 10 10 2 0 7 -4 10 -10z"/>
<path d="M1334 1398 c1 -28 37 -36 55 -14 17 21 5 36 -28 36 -23 0 -28 -4 -27
-22z m46 -8 c0 -5 -9 -10 -20 -10 -11 0 -20 5 -20 10 0 6 9 10 20 10 11 0 20
-4 20 -10z"/>
</g>
</svg>
