<?xml version="1.0" standalone="no"?>
<!DOCTYPE svg PUBLIC "-//W3C//DTD SVG 20010904//EN"
 "http://www.w3.org/TR/2001/REC-SVG-20010904/DTD/svg10.dtd">
<svg version="1.0" xmlns="http://www.w3.org/2000/svg"
 width="100.000000pt" height="100.000000pt" viewBox="0 0 100.000000 100.000000"
 preserveAspectRatio="xMidYMid meet">
<metadata>
Created by potrace 1.11, written by Peter Selinger 2001-2013
</metadata>
<g transform="translate(0.000000,100.000000) scale(0.100000,-0.100000)"
fill="#000000" stroke="none">
<path d="M366 989 c-130 -32 -260 -143 -324 -276 l-37 -78 0 -135 0 -135 37
-78 c53 -110 128 -186 237 -240 l84 -42 137 0 137 0 84 42 c109 54 184 130
237 240 l37 78 0 135 0 135 -37 78 c-53 110 -128 186 -237 240 -83 41 -86 42
-200 44 -64 1 -133 -2 -155 -8z"/>
</g>
</svg>
